# AST/ASF file generated using VICON BodyLanguage
# -----------------------------------------------
:version 1.10
:name VICON
:units
  mass 1.0
  length 0.45
  angle deg
:documentation
   .ast/.asf automatically generated from VICON data using
   VICON BodyBuilder and BodyLanguage model FoxedUp or BRILLIANT.MOD
:root
   order TX TY TZ RX RY RZ
   axis XYZ
   position 0 0 0  
   orientation 0 0 0 
:bonedata
  begin
     id 1 
     name lhipjoint
     direction 0.567725 -0.736092 0.368589 
     length 2.42353 
     axis 0 0 0  XYZ
  end
  begin
     id 2 
     name lfemur
     direction 0.34202 -0.939693 0  
     length 7.24894  
     axis 0 0 20  XYZ
    dof rx ry rz
    limits (-160.0 20.0)
           (-70.0 70.0)
           (-60.0 70.0)
  end
  begin
     id 3 
     name ltibia
     direction 0.34202 -0.939693 0   
     length 7.6997   
     axis 0 0 20   XYZ
    dof rx
    limits (-10.0 170.0)
  end
  begin
     id 4 
     name lfoot
     direction 0.100767 -0.276854 0.955614   
     length 2.37556   
     axis -90 7.62852e-016 20   XYZ
    dof rx rz
    limits (-45.0 90.0)
           (-70.0 20.0)
  end
  begin
     id 5 
     name ltoes
     direction 1.53592e-011 -4.21894e-011 1   
     length 1.18363   
     axis -90 7.62852e-016 20   XYZ
    dof rx
    limits (-90.0 20.0)
  end
  begin
     id 6 
     name rhipjoint
     direction -0.556459 -0.742938 0.372017   
     length 2.4012  
     axis 0 0 0  XYZ 
  end
  begin
     id 7 
     name rfemur
     direction -0.34202 -0.939693 0   
     length 7.5119   
     axis 0 0 -20   XYZ
    dof rx ry rz
    limits (-160.0 20.0)
           (-70.0 70.0)
           (-70.0 60.0)
  end
  begin
     id 8 
     name rtibia
     direction -0.34202 -0.939693 0   
     length 7.50155   
     axis 0 0 -20   XYZ
    dof rx
    limits (-10.0 170.0)
 end
 begin
     id 9 
     name rfoot
     direction -0.118427 -0.325376 0.938139   
     length 2.32487  
     axis -90 -7.62852e-016 -20   XYZ
    dof rx rz
    limits (-45.0 90.0)
           (-20.0 70.0)
  end
  begin
     id 10 
     name rtoes
     direction -1.53525e-011 -4.21868e-011 1   
     length 1.15233   
     axis -90 -7.62852e-016 -20   XYZ
    dof rx
    limits (-90.0 20.0)
  end
  begin
     id 11 
     name lowerback
     direction 0.0287568 0.999577 -0.00434502   
     length 2.15243   
     axis 0 0 0   XYZ
    dof rx ry rz
    limits (-20.0 45.0)
           (-30.0 30.0)
           (-30.0 30.0)
  end
  begin
     id 12 
     name upperback
     direction 0.0294009 0.99956 0.00404628   
     length 2.15427   
     axis 0 0 0   XYZ
    dof rx ry rz
    limits (-20.0 45.0)
           (-30.0 30.0)
           (-30.0 30.0)
  end
  begin
     id 13 
     name thorax
     direction 0.0151014 0.999868 0.0059419   
     length 2.14898   
     axis 0 0 0   XYZ
    dof rx ry rz
    limits (-20.0 45.0)
           (-30.0 30.0)
           (-30.0 30.0)
  end
  begin
     id 14 
     name lowerneck
     direction -0.0249197 0.989906 0.139515   
     length 1.6861   
     axis 0 0 0   XYZ
    dof rx ry rz
    limits (-20.0 45.0)
           (-30.0 30.0)
           (-30.0 30.0)
  end
  begin
     id 15 
     name upperneck
     direction 0.0438463 0.988795 -0.142693   
     length 1.71276   
     axis 0 0 0   XYZ
    dof rx ry rz
    limits (-20.0 45.0)
           (-30.0 30.0)
           (-30.0 30.0)
  end
  begin
     id 16
     name head
     direction 0.0148499 0.997845 -0.0639186  
     length 1.7209  
     axis 0 0 0   XYZ
    dof rx ry rz
    limits (-20.0 45.0)
           (-30.0 30.0)
           (-30.0 30.0)
  end
  begin
     id 17 
     name lclavicle
     direction 0.940298 0.323464 -0.105876  
     length 3.9048  
     axis 0 0 0   XYZ
    dof ry rz
    limits (-20.0 10.0)
           (0.0 20.0)
  end
  begin
     id 18 
     name lhumerus
     direction 1 -4.48954e-011 -4.9675e-028   
     length 4.6851   
     axis 180 -30 -90   XYZ
    dof rx ry rz
    limits (-60.0 90.0)
           (-90.0 90.0)
           (-90.0 90.0)
  end
  begin
     id 19
     name lradius
     direction 1 -4.48992e-011 -1.03359e-026   
     length 3.39626   
     axis 180 -30 -90   XYZ
    dof rx
    limits (-10.0 170.0)
  end
  begin
     id 20
     name lwrist
     direction 1 -4.48906e-011 -1.67336e-026   
     length 1.69813   
     axis 9.90442e-015 90 90   XYZ
    dof ry
    limits (-180.0 0.0)
 end
  begin
     id 21 
     name lhand
     direction 1 -4.49006e-011 -3.34673e-026   
     length 0.486078   
     axis 2.1355e-014 90 90   XYZ
    dof rx rz
    limits (-90.0 90.0)
           (-45.0 45.0)
  end
  begin
     id 22 
     name lfingers
     direction 1 -4.48992e-011 -6.69345e-026   
     length 0.391889   
     axis 4.27099e-014 90 90   XYZ
    dof rx
    limits (0.0 90.0)
  end
  begin
     id 23
     name lthumb
     direction 0.707107 -6.34926e-011 0.707107   
     length 0.562676   
     axis -90 45 2.85299e-015   XYZ
    dof rx rz
    limits (-45.0 45.0)
           (-45.0 45.0)
  end
  begin
     id 24 
     name rclavicle
     direction -0.882459 0.414895 -0.221648   
     length 3.44646  
     axis 0 0 0   XYZ 
    dof ry rz
    limits (-10.0 20.0)
           (-20.0 0.0)
  end
  begin
     id 25 
     name rhumerus
     direction -1 -4.48962e-011 -2.37984e-027  
     length 5.55576   
     axis 180 30 90   XYZ
    dof rx ry rz
    limits (-90.0 60.0)
           (-90.0 90.0)
           (-90.0 90.0)
  end
  begin
     id 26 
     name rradius
     direction -1 -4.48982e-011 -6.86791e-027   
     length 3.32774   
     axis 180 30 90   XYZ
    dof rx
    limits (-10.0 170.0)
  end
  begin
     id 27 
     name rwrist
     direction -1 -4.48961e-011 -1.67336e-026   
     length 1.66387   
     axis 9.90442e-015 -90 -90   XYZ
    dof ry
    limits (-180.0 0.0)
  end
  begin
     id 28
     name rhand
     direction -1 -4.4897e-011 -3.34673e-026   
     length 0.507628   
     axis 2.1355e-014 -90 -90   XYZ
    dof rx rz
    limits (-90.0 90.0)
           (-45.0 45.0)
  end
  begin
     id 29
     name rfingers
     direction -1 -4.48854e-011 -6.69345e-026   
     length 0.409263   
     axis 4.27099e-014 -90 -90   XYZ
    dof rx
    limits (0.0 90.0)
  end
  begin
     id 30
     name rthumb
     direction -0.707107 -6.34913e-011 0.707107   
     length 0.587622   
     axis -90 -45 -2.85299e-015   XYZ
    dof rx rz
    limits (-45.0 45.0)
           (-45.0 45.0)
  end
:hierarchy
  begin
    root lhipjoint rhipjoint lowerback
    lhipjoint lfemur
    lfemur ltibia
    ltibia lfoot
    lfoot ltoes
    rhipjoint rfemur
    rfemur rtibia
    rtibia rfoot
    rfoot rtoes
    lowerback upperback
    upperback thorax
    thorax lowerneck lclavicle rclavicle
    lowerneck upperneck
    upperneck head
    lclavicle lhumerus
    lhumerus lradius
    lradius lwrist
    lwrist lhand lthumb
    lhand lfingers
    rclavicle rhumerus
    rhumerus rradius
    rradius rwrist
    rwrist rhand rthumb
    rhand rfingers
  end

#!OML:ASF E:\motion texture\Top Level 1\Subject 1\Session 1\male.ASF
:FULLY-SPECIFIED
:DEGREES
51
root 41.7826 17.6808 6.37183 109.156 -83.5905 -100.8
lowerback -4.09368 -0.420504 4.88676
upperback -0.494807 -0.934418 3.62125
thorax 1.77382 -0.479972 0.934956
lowerneck -16.8072 -2.68486 -6.42634
upperneck 4.95933 -3.23566 9.6168
head 4.4739 -1.16975 3.7683
rclavicle 1.10822e-014 -7.7526e-014
rhumerus -27.8755 -13.4016 -80.1203
rradius 21.628
rwrist 17.9346
rhand -12.4825 -24.935
rfingers 7.12502
rthumb 13.592 -54.4713
lclavicle 1.10822e-014 -7.7526e-014
lhumerus -29.424 23.5759 83.4065
lradius 23.4933
lwrist -33.9233
lhand -14.2569 18.2771
lfingers 7.12502
lthumb 11.8814 47.92
rfemur -10.4387 1.1858 29.6596
rtibia 18.1425
rfoot -12.1394 -12.5928
rtoes 14.4796
lfemur -14.5396 0.287406 -9.85463
ltibia 25.2144
lfoot -12.2808 2.13919
ltoes -0.367908
52
root 41.772 17.6757 6.36609 108.879 -83.4938 -100.585
lowerback -3.99592 -0.399382 5.0203
upperback -0.42837 -0.909762 3.64083
thorax 1.78642 -0.466306 0.882823
lowerneck -16.839 -2.69921 -6.42891
upperneck 4.90873 -3.24609 9.57963
head 4.46327 -1.17732 3.75568
rclavicle -5.91384e-015 -1.19271e-015
rhumerus -27.8222 -13.1267 -80.1619
rradius 21.8484
rwrist 17.5596
rhand -12.4522 -25.0078
rfingers 7.12502
rthumb 13.6212 -54.5422
lclavicle -5.91384e-015 -1.19271e-015
lhumerus -29.4412 23.4961 83.5631
lradius 23.4538
lwrist -33.9985
lhand -14.1362 18.2194
lfingers 7.12502
lthumb 11.9978 47.8556
rfemur -10.3482 1.16937 29.8066
rtibia 18.1837
rfoot -12.2113 -12.5844
rtoes 14.4161
lfemur -15.1549 0.621775 -9.70853
ltibia 26.4251
lfoot -12.3465 2.00079
ltoes -0.795293
53
root 41.761 17.6706 6.36031 108.618 -83.3937 -100.386
lowerback -3.89579 -0.376105 5.15493
upperback -0.359911 -0.882044 3.65973
thorax 1.79994 -0.451012 0.829554
lowerneck -16.8741 -2.71534 -6.43197
upperneck 4.8572 -3.25887 9.54432
head 4.45312 -1.1859 3.74352
rclavicle 9.0447e-015 1.19271e-015
rhumerus -27.7566 -12.8391 -80.2041
rradius 22.0828
rwrist 17.1765
rhand -12.4239 -25.0865
rfingers 7.12502
rthumb 13.6484 -54.619
lclavicle 9.0447e-015 1.19271e-015
lhumerus -29.453 23.4095 83.7207
lradius 23.4197
lwrist -34.0692
lhand -14.0104 18.163
lfingers 7.12502
lthumb 12.1191 47.792
rfemur -10.2521 1.1518 29.9568
rtibia 18.2208
rfoot -12.282 -12.5742
rtoes 14.3487
lfemur -15.7958 0.958788 -9.56019
ltibia 27.6693
lfoot -12.3998 1.87328
ltoes -1.24667
54
root 41.7493 17.6655 6.35448 108.381 -83.292 -100.214
lowerback -3.79904 -0.351005 5.28943
upperback -0.289318 -0.852071 3.67686
thorax 1.81771 -0.434417 0.774599
lowerneck -16.901 -2.73129 -6.4356
upperneck 4.79832 -3.27159 9.51182
head 4.43946 -1.19463 3.73233
rclavicle -7.40473e-015 3.4191e-014
rhumerus -27.6796 -12.5374 -80.248
rradius 22.3304
rwrist 16.7865
rhand -12.4022 -25.1718
rfingers 7.12502
rthumb 13.6694 -54.7029
lclavicle -7.40473e-015 3.4191e-014
lhumerus -29.4621 23.3172 83.8758
lradius 23.3911
lwrist -34.1313
lhand -13.8832 18.1038
lfingers 7.12502
lthumb 12.2418 47.7255
rfemur -10.1508 1.13452 30.1083
rtibia 18.2539
rfoot -12.3523 -12.5632
rtoes 14.2811
lfemur -16.4611 1.29807 -9.41181
ltibia 28.9425
lfoot -12.4411 1.75777
ltoes -1.73339
55
root 41.7371 17.6606 6.34855 108.147 -83.1891 -100.043
lowerback -3.7027 -0.324345 5.42205
upperback -0.217605 -0.819871 3.69323
thorax 1.83708 -0.416614 0.72002
lowerneck -16.9269 -2.74885 -6.44016
upperneck 4.73581 -3.2864 9.48161
head 4.42476 -1.20437 3.72183
rclavicle 2.68359e-015 -2.78299e-015
rhumerus -27.591 -12.2232 -80.2914
rradius 22.5929
rwrist 16.3882
rhand -12.3836 -25.2584
rfingers 7.12502
rthumb 13.6873 -54.7883
lclavicle 2.68359e-015 -2.78299e-015
lhumerus -29.4666 23.2201 84.0298
lradius 23.367
lwrist -34.1885
lhand -13.7522 18.0447
lfingers 7.12502
lthumb 12.3681 47.6589
rfemur -10.046 1.11768 30.2616
rtibia 18.2829
rfoot -12.422 -12.5539
rtoes 14.2146
lfemur -17.1523 1.63629 -9.26278
ltibia 30.2401
lfoot -12.4694 1.65333
ltoes -2.22728
56
root 41.7242 17.6557 6.34261 107.932 -83.0855 -99.892
lowerback -3.61108 -0.29533 5.55338
upperback -0.141902 -0.7849 3.70758
thorax 1.86344 -0.397161 0.66415
lowerneck -16.9532 -2.7677 -6.44458
upperneck 4.66884 -3.30306 9.45378
head 4.40896 -1.21496 3.71188
rclavicle 5.11871e-015 2.46493e-014
rhumerus -27.4878 -11.8991 -80.3353
rradius 22.8694
rwrist 15.986
rhand -12.3695 -25.3529
rfingers 7.12502
rthumb 13.7009 -54.8819
lclavicle 5.11871e-015 2.46493e-014
lhumerus -29.4641 23.1179 84.1821
lradius 23.3488
lwrist -34.2397
lhand -13.6186 17.9886
lfingers 7.12502
lthumb 12.4968 47.5949
rfemur -9.93568 1.10041 30.4148
rtibia 18.3069
rfoot -12.4911 -12.5439
rtoes 14.1442
lfemur -17.8636 1.97325 -9.11498
ltibia 31.5527
lfoot -12.4846 1.56197
ltoes -2.7417
57
root 41.7106 17.651 6.33665 107.737 -82.9814 -99.7605
lowerback -3.52018 -0.264489 5.6825
upperback -0.0664381 -0.74729 3.72062
thorax 1.89021 -0.376316 0.608271
lowerneck -16.9748 -2.78716 -6.4496
upperneck 4.59923 -3.32063 9.42725
head 4.3917 -1.22609 3.70237
rclavicle 6.70898e-015 1.98785e-014
rhumerus -27.3763 -11.5638 -80.377
rradius 23.1585
rwrist 15.5832
rhand -12.3669 -25.4452
rfingers 7.12502
rthumb 13.7035 -54.974
lclavicle 6.70898e-015 1.98785e-014
lhumerus -29.4623 23.0123 84.3297
lradius 23.3371
lwrist -34.2842
lhand -13.4838 17.9307
lfingers 7.12502
lthumb 12.6268 47.5291
rfemur -9.82008 1.08382 30.568
rtibia 18.3257
rfoot -12.5599 -12.5344
rtoes 14.0711
lfemur -18.5935 2.30794 -8.96841
ltibia 32.8748
lfoot -12.4873 1.48371
ltoes -3.26592
58
root 41.6963 17.6464 6.33068 107.559 -82.8774 -99.6452
lowerback -3.43056 -0.231767 5.80932
upperback 0.00880037 -0.706979 3.73166
thorax 1.91773 -0.354029 0.551726
lowerneck -16.9931 -2.80773 -6.45662
upperneck 4.52751 -3.33975 9.40463
head 4.37352 -1.23791 3.6943
rclavicle 1.39149e-015 3.29983e-014
rhumerus -27.2566 -11.2187 -80.4166
rradius 23.462
rwrist 15.1792
rhand -12.3693 -25.5485
rfingers 7.12502
rthumb 13.7011 -55.0774
lclavicle 1.39149e-015 3.29983e-014
lhumerus -29.4608 22.9024 84.4722
lradius 23.3324
lwrist -34.3212
lhand -13.3492 17.8737
lfingers 7.12502
lthumb 12.7566 47.464
rfemur -9.69931 1.06782 30.7203
rtibia 18.3381
rfoot -12.6271 -12.5255
rtoes 13.9928
lfemur -19.3401 2.63871 -8.82398
ltibia 34.1986
lfoot -12.4764 1.42012
ltoes -3.80147
59
root 41.681 17.642 6.32473 107.41 -82.7732 -99.5569
lowerback -3.33736 -0.196638 5.93317
upperback 0.0817005 -0.662699 3.74125
thorax 1.94116 -0.329813 0.495539
lowerneck -17.0146 -2.82998 -6.46407
upperneck 4.45955 -3.36119 9.3827
head 4.35721 -1.25069 3.68632
rclavicle -2.43511e-015 -3.26007e-014
rhumerus -27.1306 -10.8649 -80.4524
rradius 23.7795
rwrist 14.7738
rhand -12.378 -25.6544
rfingers 7.12502
rthumb 13.6927 -55.1839
lclavicle -2.43511e-015 -3.26007e-014
lhumerus -29.4624 22.7902 84.608
lradius 23.3349
lwrist -34.3513
lhand -13.2148 17.8158
lfingers 7.12502
lthumb 12.8861 47.398
rfemur -9.57339 1.05331 30.8717
rtibia 18.3445
rfoot -12.6937 -12.5163
rtoes 13.9169
lfemur -20.0999 2.96569 -8.68143
ltibia 35.5163
lfoot -12.4522 1.3725
ltoes -4.3465
60
root 41.6649 17.6378 6.31881 107.282 -82.6704 -99.4882
lowerback -3.24354 -0.159467 6.05246
upperback 0.152536 -0.615129 3.74944
thorax 1.96244 -0.303984 0.440569
lowerneck -17.0357 -2.85383 -6.47219
upperneck 4.39207 -3.38464 9.36025
head 4.34114 -1.26449 3.67811
rclavicle -4.47266e-015 1.51076e-014
rhumerus -26.9983 -10.5009 -80.484
rradius 24.1131
rwrist 14.3621
rhand -12.3878 -25.7824
rfingers 7.12502
rthumb 13.6833 -55.3126
lclavicle -4.47266e-015 1.51076e-014
lhumerus -29.4678 22.6783 84.7368
lradius 23.3451
lwrist -34.3766
lhand -13.0814 17.7576
lfingers 7.12502
lthumb 13.0148 47.3316
rfemur -9.44256 1.03955 31.0207
rtibia 18.3442
rfoot -12.7596 -12.5075
rtoes 13.8362
lfemur -20.8709 3.28742 -8.54263
ltibia 36.8198
lfoot -12.4154 1.33962
ltoes -4.90266
